<?xml version="1.0" encoding="UTF-8" standalone="no"?>
<svg
   xmlns:osb="http://www.openswatchbook.org/uri/2009/osb"
   xmlns:dc="http://purl.org/dc/elements/1.1/"
   xmlns:cc="http://creativecommons.org/ns#"
   xmlns:rdf="http://www.w3.org/1999/02/22-rdf-syntax-ns#"
   xmlns:svg="http://www.w3.org/2000/svg"
   xmlns="http://www.w3.org/2000/svg"
   xmlns:sodipodi="http://sodipodi.sourceforge.net/DTD/sodipodi-0.dtd"
   xmlns:inkscape="http://www.inkscape.org/namespaces/inkscape"
   width="48"
   height="48"
   viewBox="0 0 12.7 12.7"
   version="1.1"
   id="svg8"
   sodipodi:docname="gtk-refresh.svg"
   inkscape:version="1.0.2 (e86c870879, 2021-01-15)">
  <defs
     id="defs2">
    <linearGradient
       id="linearGradient944"
       osb:paint="gradient">
      <stop
         style="stop-color:#2bd900;stop-opacity:1;"
         offset="0"
         id="stop940" />
      <stop
         style="stop-color:#2bd900;stop-opacity:0;"
         offset="1"
         id="stop942" />
    </linearGradient>
  </defs>
  <sodipodi:namedview
     id="base"
     pagecolor="#ffffff"
     bordercolor="#666666"
     borderopacity="1.0"
     inkscape:pageopacity="0.0"
     inkscape:pageshadow="2"
     inkscape:zoom="15.3125"
     inkscape:cx="24"
     inkscape:cy="24"
     inkscape:document-units="mm"
     inkscape:current-layer="layer1"
     inkscape:document-rotation="0"
     showgrid="true"
     units="px"
     inkscape:window-width="1455"
     inkscape:window-height="950"
     inkscape:window-x="0"
     inkscape:window-y="37"
     inkscape:window-maximized="0"
     showguides="true">
    <inkscape:grid
       type="xygrid"
       id="grid833"
       empspacing="1" />
  </sodipodi:namedview>
  <metadata
     id="metadata5">
    <rdf:RDF>
      <cc:Work
         rdf:about="">
        <dc:format>image/svg+xml</dc:format>
        <dc:type
           rdf:resource="http://purl.org/dc/dcmitype/StillImage" />
        <dc:title />
      </cc:Work>
    </rdf:RDF>
  </metadata>
  <g
     inkscape:label="Layer 1"
     inkscape:groupmode="layer"
     id="layer1">
    <path
       style="color:#444444;fill:#000000;fill-opacity:1;stroke-width:0.264583"
       class="ColorScheme-Text"
       d="m 6.203173,1.1224154 c -3.216892,0 -5.75356687,2.5527185 -5.75356684,5.7016559 5e-7,3.1489375 2.53667514,5.7016567 5.75356684,5.7016567 2.8257398,-0.06728 4.298947,-1.471849 5.306988,-3.3239323 0.25201,-0.79375 -0.513369,-1.7890264 -1.49597,-0.74868 -0.661412,1.4834713 -2.1574893,2.4427333 -3.811018,2.4435673 -2.2977803,0 -4.2458073,-1.8391333 -4.2458069,-4.0883748 -2e-7,-2.2492411 1.9480269,-4.0568483 4.2458069,-4.0568483 1.1022933,0.00276 2.8083456,0.982134 3.5864103,1.7464568 L 6.987344,4.4784019 c -0.3129998,0.00374 -1.1887805,0.8707395 0,1.6027143 h 4.545476 c 0.301654,0.05588 0.545892,-0.4263583 0.50471,-0.5850854 V 0.99951187 c -0.542381,-1.07199441 -1.278932,-0.61880668 -1.514812,0.00634 V 3.1428066 C 9.4312479,2.0733539 7.7474791,1.1235374 6.203173,1.1224154 Z"
       id="path5"
       sodipodi:nodetypes="csccccscccccccccc" />
  </g>
</svg>
