<?xml version="1.0" encoding="UTF-8" standalone="no"?>
<svg
   xmlns:dc="http://purl.org/dc/elements/1.1/"
   xmlns:cc="http://creativecommons.org/ns#"
   xmlns:rdf="http://www.w3.org/1999/02/22-rdf-syntax-ns#"
   xmlns:svg="http://www.w3.org/2000/svg"
   xmlns="http://www.w3.org/2000/svg"
   xmlns:sodipodi="http://sodipodi.sourceforge.net/DTD/sodipodi-0.dtd"
   xmlns:inkscape="http://www.inkscape.org/namespaces/inkscape"
   width="16"
   height="16"
   version="1.1"
   id="svg8"
   sodipodi:docname="microphone-sensitivity-muted-symbolic.svg"
   inkscape:version="1.0.2 (e86c870879, 2021-01-15)">
  <metadata
     id="metadata14">
    <rdf:RDF>
      <cc:Work
         rdf:about="">
        <dc:format>image/svg+xml</dc:format>
        <dc:type
           rdf:resource="http://purl.org/dc/dcmitype/StillImage" />
      </cc:Work>
    </rdf:RDF>
  </metadata>
  <defs
     id="defs12" />
  <sodipodi:namedview
     pagecolor="#ffffff"
     bordercolor="#666666"
     borderopacity="1"
     objecttolerance="10"
     gridtolerance="10"
     guidetolerance="10"
     inkscape:pageopacity="0"
     inkscape:pageshadow="2"
     inkscape:window-width="1680"
     inkscape:window-height="990"
     id="namedview10"
     showgrid="false"
     inkscape:zoom="45.9375"
     inkscape:cx="8"
     inkscape:cy="8"
     inkscape:window-x="0"
     inkscape:window-y="37"
     inkscape:window-maximized="1"
     inkscape:current-layer="svg8" />
  <path
     style="fill:#444444"
     d="M 8,0 C 6.6398,0 5.5123,0.90584 5.1445,2.1445 L 11,8 V 3 C 11,1.34 9.66,0 8,0 Z M 5,5.5 V 8 C 5,9.66 6.34,11 8,11 8.7017,11 9.3393,10.751 9.8496,10.35 Z M 2,7 V 8 C 2,10.97 4.16,13.43 7,13.91 V 16 H 9 V 13.91 C 10.134,13.719 11.15,13.202 11.973,12.473 L 10.562,11.062 C 9.8702,11.642 8.9855,12 8,12 5.77,12 4,10.23 4,8 V 7 Z M 12,7 V 8 C 12,8.3068 11.949,8.5971 11.881,8.8809 L 13.449,10.449 C 13.792,9.7002 14,8.8778 14,8 V 7 Z"
     id="path2" />
  <path
     style="fill:#444444"
     d="M 2.5,1 15,13.5 13.5,15 1,2.5 Z"
     id="path4" />
  <path
     style="fill:#ff0048;fill-opacity:1"
     d="M 2.5,1 15,13.5 13.5,15 1,2.5 Z"
     id="path6" />
</svg>
