/* XPM */
static char * stick_toggled_active_xpm[] = {
"20 24 3 1",
" 	c #4D98F5",
".	c #EEEEEE",
"+	c #5B9CF5",
"                    ",
"                    ",
"                    ",
"                    ",
"                    ",
"                    ",
"                    ",
"                    ",
"                    ",
"       ......       ",
"       ......       ",
"       ..++..       ",
"       ..++..       ",
"       ......       ",
"       ......       ",
"                    ",
"                    ",
"                    ",
"                    ",
"                    ",
"                    ",
"                    ",
"                    ",
"                    "};
