<?xml version="1.0" encoding="UTF-8" standalone="no"?>
<svg
   xmlns:dc="http://purl.org/dc/elements/1.1/"
   xmlns:cc="http://creativecommons.org/ns#"
   xmlns:rdf="http://www.w3.org/1999/02/22-rdf-syntax-ns#"
   xmlns:svg="http://www.w3.org/2000/svg"
   xmlns="http://www.w3.org/2000/svg"
   xmlns:sodipodi="http://sodipodi.sourceforge.net/DTD/sodipodi-0.dtd"
   xmlns:inkscape="http://www.inkscape.org/namespaces/inkscape"
   version="1.1"
   width="16"
   height="16"
   id="svg7384"
   sodipodi:docname="notification-disabled-new.svg"
   inkscape:version="1.0.2 (e86c870879, 2021-01-15)">
  <sodipodi:namedview
     pagecolor="#ffffff"
     bordercolor="#666666"
     borderopacity="1"
     objecttolerance="10"
     gridtolerance="10"
     guidetolerance="10"
     inkscape:pageopacity="0"
     inkscape:pageshadow="2"
     inkscape:window-width="1400"
     inkscape:window-height="982"
     id="namedview8"
     showgrid="false"
     inkscape:zoom="46.6875"
     inkscape:cx="8"
     inkscape:cy="8"
     inkscape:window-x="0"
     inkscape:window-y="37"
     inkscape:window-maximized="1"
     inkscape:current-layer="svg7384"
     inkscape:document-rotation="0" />
  <title
     id="title9167">elementary Symbolic Icon Theme</title>
  <metadata
     id="metadata90">
    <rdf:RDF>
      <cc:Work
         rdf:about="">
        <dc:format>image/svg+xml</dc:format>
        <dc:type
           rdf:resource="http://purl.org/dc/dcmitype/StillImage" />
        <dc:title>elementary Symbolic Icon Theme</dc:title>
      </cc:Work>
    </rdf:RDF>
  </metadata>
  <defs
     id="defs7386" />
  <path
     id="path3355"
     d="M 7.5067578,4.1128752 C 6.7599227,4.3531748 6.118704,4.9181417 5.808981,5.663852 c 0,0 -1.2513588,3.0195601 -2.4088009,2.9794068 -0.012615,0.00229 -0.022111,0.013281 -0.034466,0.016594 -0.051482,0.013751 -0.097229,0.035529 -0.1416941,0.065103 -0.017336,0.011483 -0.035221,0.019483 -0.051061,0.033189 -0.056186,0.048483 -0.1048699,0.106497 -0.1353116,0.1799895 -0.1039225,0.2508899 0.014626,0.5368934 0.265517,0.6408154 l 6.3404951,2.6258093 c 0.250891,0.103923 0.5356145,-0.01463 0.6395375,-0.265517 0.03045,-0.07349 0.03738,-0.149374 0.03192,-0.223392 -0.0014,-0.02089 -0.0086,-0.03834 -0.01277,-0.05872 -0.01052,-0.05235 -0.02693,-0.100675 -0.05361,-0.146801 -0.0064,-0.01108 -0.0056,-0.02516 -0.01276,-0.03574 -0.4923655,-0.45935 -0.2739518,-1.6640353 -0.0064,-2.599003 A 3.2679016,3.2679016 0 0 1 7.1378425,5.6153441 3.2679016,3.2679016 0 0 1 7.5067578,4.1128752 Z M 6.2634235,11.511608 a 1.3071606,1.3071606 0 0 0 0.7927214,1.390135 1.3071606,1.3071606 0 0 0 1.5433176,-0.42253 z"
     style="color:#bebebe;clip-rule:nonzero;display:inline;overflow:visible;visibility:visible;opacity:1;isolation:auto;mix-blend-mode:normal;color-interpolation:sRGB;color-interpolation-filters:linearRGB;solid-color:#000000;solid-opacity:1;fill:#c8c8c8;fill-opacity:1;fill-rule:nonzero;stroke:none;stroke-width:0.65358;stroke-linecap:butt;stroke-linejoin:miter;stroke-miterlimit:4;stroke-dasharray:none;stroke-dashoffset:0;stroke-opacity:1;marker:none;color-rendering:auto;image-rendering:auto;shape-rendering:auto;text-rendering:auto;enable-background:accumulate"
     inkscape:connector-curvature="0" />
  <path
     style="color:#bebebe;clip-rule:nonzero;display:inline;overflow:visible;visibility:visible;opacity:0.5;isolation:auto;mix-blend-mode:normal;color-interpolation:sRGB;color-interpolation-filters:linearRGB;solid-color:#000000;solid-opacity:1;fill:#ff0048;fill-opacity:1;fill-rule:nonzero;stroke:none;stroke-width:1.16419;stroke-linecap:butt;stroke-linejoin:miter;stroke-miterlimit:4;stroke-dasharray:none;stroke-dashoffset:0;stroke-opacity:1;marker:none;color-rendering:auto;image-rendering:auto;shape-rendering:auto;text-rendering:auto;enable-background:new"
     id="path3009"
     d="m 13.020065,5.6153441 a 2.6143214,2.6143215 0 0 1 -5.2286422,0 2.6143213,2.6143215 0 1 1 5.2286422,0 z"
     class="error"
     inkscape:connector-curvature="0" />
</svg>
