<?xml version="1.0" encoding="UTF-8" standalone="no"?>
<svg
   xmlns:dc="http://purl.org/dc/elements/1.1/"
   xmlns:cc="http://creativecommons.org/ns#"
   xmlns:rdf="http://www.w3.org/1999/02/22-rdf-syntax-ns#"
   xmlns:svg="http://www.w3.org/2000/svg"
   xmlns="http://www.w3.org/2000/svg"
   xmlns:sodipodi="http://sodipodi.sourceforge.net/DTD/sodipodi-0.dtd"
   xmlns:inkscape="http://www.inkscape.org/namespaces/inkscape"
   viewBox="0 0 16 16"
   id="svg3197"
   height="16"
   width="16"
   version="1.0"
   sodipodi:docname="notification-symbolic.svg"
   inkscape:version="1.0.2 (e86c870879, 2021-01-15)">
  <sodipodi:namedview
     pagecolor="#ffffff"
     bordercolor="#666666"
     borderopacity="1"
     objecttolerance="10"
     gridtolerance="10"
     guidetolerance="10"
     inkscape:pageopacity="0"
     inkscape:pageshadow="2"
     inkscape:window-width="1680"
     inkscape:window-height="990"
     id="namedview6"
     showgrid="true"
     inkscape:zoom="27.812867"
     inkscape:cx="12"
     inkscape:cy="9.1236334"
     inkscape:window-x="0"
     inkscape:window-y="37"
     inkscape:window-maximized="1"
     inkscape:current-layer="svg3197"
     inkscape:document-rotation="0">
    <inkscape:grid
       type="xygrid"
       id="grid4483" />
  </sodipodi:namedview>
  <metadata
     id="metadata12">
    <rdf:RDF>
      <cc:Work
         rdf:about="">
        <dc:format>image/svg+xml</dc:format>
        <dc:type
           rdf:resource="http://purl.org/dc/dcmitype/StillImage" />
        <dc:title />
      </cc:Work>
    </rdf:RDF>
  </metadata>
  <defs
     id="defs3199" />
  <path
     id="path3347"
     d="M 8,3 C 7.6191138,3 7.3103449,3.3087692 7.3103449,3.6896552 v 0.00674 C 6.093318,4.0106214 5.2425869,5.1913364 5.2413793,6.4482759 c 0,0 -3.617e-4,3.4483772 -1.1449353,3.8766161 -0.011348,0.0074 -0.016237,0.02141 -0.02694,0.02963 -0.044637,0.03419 -0.080392,0.07444 -0.1117995,0.121229 -0.012265,0.01819 -0.02646,0.03278 -0.036368,0.05253 -0.035194,0.06996 -0.059267,0.146396 -0.059267,0.230334 0,0.286551 0.2306897,0.517241 0.5172414,0.517241 H 11.62069 c 0.286551,0 0.517241,-0.23069 0.517241,-0.517241 0,-0.08394 -0.02408,-0.160377 -0.05927,-0.230334 -0.0099,-0.01976 -0.0241,-0.03434 -0.03636,-0.05253 -0.03141,-0.04679 -0.06717,-0.08703 -0.1118,-0.121229 -0.0107,-0.0082 -0.01559,-0.02225 -0.02694,-0.02963 C 10.758979,9.8966531 10.758621,6.4482759 10.758621,6.4482759 10.757413,5.1913364 9.9066821,4.0106245 8.6896552,3.6963901 v -0.00673 C 8.6896552,3.3087692 8.3808862,3 8,3 Z M 6.6664869,11.965517 A 1.3793103,1.3793103 0 0 0 8,13 1.3793103,1.3793103 0 0 0 9.33486,11.965517 Z"
     style="color:#bebebe;clip-rule:nonzero;display:inline;overflow:visible;visibility:visible;opacity:1;isolation:auto;mix-blend-mode:normal;color-interpolation:sRGB;color-interpolation-filters:linearRGB;solid-color:#000000;solid-opacity:1;fill:#5cc9ff;fill-opacity:1;fill-rule:nonzero;stroke:none;stroke-width:0.689655;stroke-linecap:butt;stroke-linejoin:miter;stroke-miterlimit:4;stroke-dasharray:none;stroke-dashoffset:0;stroke-opacity:1;marker:none;color-rendering:auto;image-rendering:auto;shape-rendering:auto;text-rendering:auto;enable-background:accumulate"
     inkscape:connector-curvature="0" />
</svg>
