<?xml version="1.0" encoding="UTF-8" standalone="no"?>
<svg
   xmlns:dc="http://purl.org/dc/elements/1.1/"
   xmlns:cc="http://creativecommons.org/ns#"
   xmlns:rdf="http://www.w3.org/1999/02/22-rdf-syntax-ns#"
   xmlns:svg="http://www.w3.org/2000/svg"
   xmlns="http://www.w3.org/2000/svg"
   xmlns:sodipodi="http://sodipodi.sourceforge.net/DTD/sodipodi-0.dtd"
   xmlns:inkscape="http://www.inkscape.org/namespaces/inkscape"
   width="24"
   height="24"
   viewBox="0 0 6.35 6.35"
   version="1.1"
   id="svg2242"
   sodipodi:docname="ac-adapter.svg"
   inkscape:version="1.0.2 (e86c870879, 2021-01-15)">
  <sodipodi:namedview
     pagecolor="#ffffff"
     bordercolor="#666666"
     borderopacity="1"
     objecttolerance="10"
     gridtolerance="10"
     guidetolerance="10"
     inkscape:pageopacity="0"
     inkscape:pageshadow="2"
     inkscape:window-width="1680"
     inkscape:window-height="990"
     id="namedview13"
     showgrid="true"
     inkscape:zoom="24.21875"
     inkscape:cx="16"
     inkscape:cy="12.696774"
     inkscape:window-x="0"
     inkscape:window-y="37"
     inkscape:window-maximized="1"
     inkscape:current-layer="svg2242"
     inkscape:document-rotation="0">
    <inkscape:grid
       type="xygrid"
       id="grid844"
       empspacing="1" />
  </sodipodi:namedview>
  <defs
     id="defs2236">
    <marker
       style="overflow:visible"
       id="Arrow1Lstart"
       refX="0"
       refY="0"
       orient="auto">
      <path
         transform="matrix(0.8,0,0,0.8,10,0)"
         style="fill-rule:evenodd;stroke:#000000;stroke-width:1pt"
         d="M 0,0 5,-5 -12.5,0 5,5 Z"
         id="path1628" />
    </marker>
  </defs>
  <metadata
     id="metadata2239">
    <rdf:RDF>
      <cc:Work
         rdf:about="">
        <dc:format>image/svg+xml</dc:format>
        <dc:type
           rdf:resource="http://purl.org/dc/dcmitype/StillImage" />
        <dc:title></dc:title>
      </cc:Work>
    </rdf:RDF>
  </metadata>
  <rect
     style="fill:none;stroke:#00d900;stroke-width:9.53401;stroke-linejoin:miter;stroke-miterlimit:4;stroke-dasharray:none"
     id="rect3152"
     width="0"
     height="0"
     x="43.729687"
     y="-54.709492"
     ry="0" />
  <path
     id="rect1301"
     style="fill:#333333;fill-opacity:1;stroke:none;stroke-width:0;stroke-linejoin:miter;stroke-miterlimit:4;stroke-dasharray:none"
     d="m 0.58686373,2.6615448 h 0.3254546 V 2.9988464 H 0.58686373 Z M 0.13229167,3.0745689 H 0.46673979 V 3.3347718 H 0.13229167 Z M 1.3131154,2.2300353 H 1.728179 V 2.5863352 H 1.3131154 Z M 0.34035349,2.9241684 H 0.73758793 V 3.2013845 H 0.34035349 Z M 0.78700003,2.4030432 H 1.1802294 V 2.765415 H 0.78700003 Z M 1.0129534,2.3246602 h 0.300162 v 0.2616746 h -0.300162 z m 0.6184163,0.040279 H 2.0156594 V 2.6995536 H 1.6313697 Z m 0.2803775,0.287975 H 2.3034849 V 3.0787289 H 1.9117472 Z M 2.1525533,2.9608605 H 2.4422187 V 3.2886473 H 2.1525533 Z m 0.2896655,0 H 2.7720995 V 3.2886474 H 2.4422188 Z M 4.5843457,3.3838712 H 6.2177084 V 3.9990421 H 4.5843457 Z m 0,-1.3023431 H 6.2177084 V 2.6966989 H 4.5843457 Z m -1.8284747,0 h 1.8284749 v 1.917514 H 2.755871 Z M 3.2810107,1.42875 H 4.9911589 V 4.684194 H 3.2810107 Z" />
</svg>
