<?xml version="1.0" encoding="UTF-8" standalone="no"?>
<svg
   xmlns:dc="http://purl.org/dc/elements/1.1/"
   xmlns:cc="http://creativecommons.org/ns#"
   xmlns:rdf="http://www.w3.org/1999/02/22-rdf-syntax-ns#"
   xmlns:svg="http://www.w3.org/2000/svg"
   xmlns="http://www.w3.org/2000/svg"
   xmlns:sodipodi="http://sodipodi.sourceforge.net/DTD/sodipodi-0.dtd"
   xmlns:inkscape="http://www.inkscape.org/namespaces/inkscape"
   version="1.1"
   width="16"
   height="16"
   id="svg7384"
   sodipodi:docname="notification-new-symbolic.svg"
   inkscape:version="1.0.2 (e86c870879, 2021-01-15)">
  <sodipodi:namedview
     pagecolor="#ffffff"
     bordercolor="#666666"
     borderopacity="1"
     objecttolerance="10"
     gridtolerance="10"
     guidetolerance="10"
     inkscape:pageopacity="0"
     inkscape:pageshadow="2"
     inkscape:window-width="1680"
     inkscape:window-height="990"
     id="namedview8"
     showgrid="false"
     inkscape:zoom="34.250485"
     inkscape:cx="8"
     inkscape:cy="8.642237"
     inkscape:window-x="0"
     inkscape:window-y="37"
     inkscape:window-maximized="1"
     inkscape:current-layer="svg7384"
     inkscape:document-rotation="0" />
  <title
     id="title9167">elementary Symbolic Icon Theme</title>
  <metadata
     id="metadata90">
    <rdf:RDF>
      <cc:Work
         rdf:about="">
        <dc:format>image/svg+xml</dc:format>
        <dc:type
           rdf:resource="http://purl.org/dc/dcmitype/StillImage" />
        <dc:title>elementary Symbolic Icon Theme</dc:title>
      </cc:Work>
    </rdf:RDF>
  </metadata>
  <defs
     id="defs7386" />
  <path
     id="path3355"
     d="M 7.5064288,4.1129145 C 6.7596483,4.3531966 6.1184764,4.9181222 5.808776,5.6637781 c 0,0 -1.2512674,3.0193396 -2.408625,2.9791892 -0.012614,0.00229 -0.022109,0.01328 -0.034464,0.016593 -0.051478,0.01375 -0.097222,0.035526 -0.1416839,0.065098 -0.017335,0.011482 -0.035218,0.019482 -0.051057,0.033187 -0.056182,0.048479 -0.1048623,0.1064892 -0.1353017,0.1799763 -0.103915,0.2508716 0.014625,0.5368542 0.2654976,0.6407686 l 6.340032,2.6256178 c 0.2508729,0.103915 0.535577,-0.01463 0.639492,-0.265498 0.03045,-0.07348 0.03738,-0.149363 0.03191,-0.223375 -0.0014,-0.0209 -0.0086,-0.03834 -0.01276,-0.05872 -0.01052,-0.05235 -0.02693,-0.100668 -0.05361,-0.14679 -0.0064,-0.01108 -0.0056,-0.02516 -0.01276,-0.03574 C 9.7431202,11.014775 9.9615184,9.810177 10.22905,8.8752776 A 3.267663,3.267663 0 0 1 7.1375405,5.6152737 3.267663,3.267663 0 0 1 7.5064288,4.1129145 Z M 6.2631853,11.511108 a 1.3070652,1.3070652 0 0 0 0.7926635,1.390033 1.3070652,1.3070652 0 0 0 1.543205,-0.422499 z"
     style="color:#bebebe;clip-rule:nonzero;display:inline;overflow:visible;visibility:visible;opacity:1;isolation:auto;mix-blend-mode:normal;color-interpolation:sRGB;color-interpolation-filters:linearRGB;solid-color:#000000;solid-opacity:1;fill:#5cc9ff;fill-opacity:1;fill-rule:nonzero;stroke:none;stroke-width:0.653532;stroke-linecap:butt;stroke-linejoin:miter;stroke-miterlimit:4;stroke-dasharray:none;stroke-dashoffset:0;stroke-opacity:1;marker:none;color-rendering:auto;image-rendering:auto;shape-rendering:auto;text-rendering:auto;enable-background:accumulate"
     inkscape:connector-curvature="0" />
  <path
     style="color:#bebebe;clip-rule:nonzero;display:inline;overflow:visible;visibility:visible;opacity:1;isolation:auto;mix-blend-mode:normal;color-interpolation:sRGB;color-interpolation-filters:linearRGB;solid-color:#000000;solid-opacity:1;fill:#ff0048;fill-opacity:1;fill-rule:nonzero;stroke:none;stroke-width:1.16411;stroke-linecap:butt;stroke-linejoin:miter;stroke-miterlimit:4;stroke-dasharray:none;stroke-dashoffset:0;stroke-opacity:1;marker:none;color-rendering:auto;image-rendering:auto;shape-rendering:auto;text-rendering:auto;enable-background:new"
     id="path3009"
     d="m 13.019333,5.6152737 a 2.6141304,2.6141305 0 0 1 -5.2282599,0 2.6141304,2.6141305 0 1 1 5.2282599,0 z"
     class="error"
     inkscape:connector-curvature="0" />
</svg>
