<?xml version="1.0" encoding="UTF-8" standalone="no"?>
<svg
   xmlns:dc="http://purl.org/dc/elements/1.1/"
   xmlns:cc="http://creativecommons.org/ns#"
   xmlns:rdf="http://www.w3.org/1999/02/22-rdf-syntax-ns#"
   xmlns:svg="http://www.w3.org/2000/svg"
   xmlns="http://www.w3.org/2000/svg"
   xmlns:sodipodi="http://sodipodi.sourceforge.net/DTD/sodipodi-0.dtd"
   xmlns:inkscape="http://www.inkscape.org/namespaces/inkscape"
   width="48"
   height="48"
   version="1"
   id="svg16"
   sodipodi:docname="application-pdf.svg"
   inkscape:version="1.0.2 (e86c870879, 2021-01-15)">
  <metadata
     id="metadata22">
    <rdf:RDF>
      <cc:Work
         rdf:about="">
        <dc:format>image/svg+xml</dc:format>
        <dc:type
           rdf:resource="http://purl.org/dc/dcmitype/StillImage" />
        <dc:title></dc:title>
      </cc:Work>
    </rdf:RDF>
  </metadata>
  <defs
     id="defs20">
    <filter
       inkscape:collect="always"
       style="color-interpolation-filters:sRGB"
       id="filter1857"
       x="-0.013047292"
       width="1.0260946"
       y="-0.012357377"
       height="1.0247148">
      <feGaussianBlur
         inkscape:collect="always"
         stdDeviation="0.1559512"
         id="feGaussianBlur1859" />
    </filter>
    <filter
       inkscape:collect="always"
       style="color-interpolation-filters:sRGB"
       id="filter2733"
       x="-0.00075717908"
       width="1.0015144"
       y="-0.00076371708"
       height="1.0015274">
      <feGaussianBlur
         inkscape:collect="always"
         stdDeviation="0.0025310828"
         id="feGaussianBlur2735" />
    </filter>
  </defs>
  <sodipodi:namedview
     pagecolor="#ffffff"
     bordercolor="#666666"
     borderopacity="1"
     objecttolerance="10"
     gridtolerance="10"
     guidetolerance="10"
     inkscape:pageopacity="0"
     inkscape:pageshadow="2"
     inkscape:window-width="1680"
     inkscape:window-height="982"
     id="namedview18"
     showgrid="false"
     inkscape:zoom="15.979167"
     inkscape:cx="24"
     inkscape:cy="24"
     inkscape:window-x="0"
     inkscape:window-y="37"
     inkscape:window-maximized="1"
     inkscape:current-layer="svg16" />
  <g
     id="g1068"
     transform="translate(27.028932,2.3872637)" />
  <g
     id="g2895">
    <g
       id="g2809"
       transform="matrix(0.99282868,0,0,1.001014,4.9407803,15.965791)"
       style="stroke-width:1.0031">
      <g
         id="g1177"
         transform="translate(7.7122056,-2.6536762)"
         style="stroke-width:1.0031">
        <g
           id="g1127"
           transform="translate(33.537609,-20.591154)"
           style="stroke-width:1.0031">
          <g
             id="g1099"
             transform="translate(-35.772135,11.826684)"
             style="stroke-width:1.0031">
            <g
               id="rect1070"
               style="opacity:1;stroke-width:1.0031"
               transform="translate(-9.9967862,4.3160333)">
              <path
                 style="color:#000000;font-style:normal;font-variant:normal;font-weight:normal;font-stretch:normal;font-size:medium;line-height:normal;font-family:sans-serif;font-variant-ligatures:normal;font-variant-position:normal;font-variant-caps:normal;font-variant-numeric:normal;font-variant-alternates:normal;font-variant-east-asian:normal;font-feature-settings:normal;font-variation-settings:normal;text-indent:0;text-align:start;text-decoration:none;text-decoration-line:none;text-decoration-style:solid;text-decoration-color:#000000;letter-spacing:normal;word-spacing:normal;text-transform:none;writing-mode:lr-tb;direction:ltr;text-orientation:mixed;dominant-baseline:auto;baseline-shift:baseline;text-anchor:start;white-space:normal;shape-padding:0;shape-margin:0;inline-size:0;clip-rule:nonzero;display:inline;overflow:visible;visibility:visible;isolation:auto;mix-blend-mode:normal;color-interpolation:sRGB;color-interpolation-filters:linearRGB;solid-color:#000000;solid-opacity:1;vector-effect:none;fill:#f0f0f0;fill-opacity:1;fill-rule:nonzero;stroke:none;stroke-width:1.0031;stroke-linecap:round;stroke-linejoin:miter;stroke-miterlimit:4;stroke-dasharray:none;stroke-dashoffset:0;stroke-opacity:1;color-rendering:auto;image-rendering:auto;shape-rendering:auto;text-rendering:auto;enable-background:accumulate;stop-color:#000000;stop-opacity:1"
                 d="m 14.074346,-8.8475048 v 0 l 26.262898,0.5212385 V 38.602338 H 7.2020016 L 6.5932003,-1.4017792 Z"
                 id="path1088"
                 sodipodi:nodetypes="ccccccc" />
              <path
                 style="color:#000000;font-style:normal;font-variant:normal;font-weight:normal;font-stretch:normal;font-size:medium;line-height:normal;font-family:sans-serif;font-variant-ligatures:normal;font-variant-position:normal;font-variant-caps:normal;font-variant-numeric:normal;font-variant-alternates:normal;font-variant-east-asian:normal;font-feature-settings:normal;font-variation-settings:normal;text-indent:0;text-align:start;text-decoration:none;text-decoration-line:none;text-decoration-style:solid;text-decoration-color:#000000;letter-spacing:normal;word-spacing:normal;text-transform:none;writing-mode:lr-tb;direction:ltr;text-orientation:mixed;dominant-baseline:auto;baseline-shift:baseline;text-anchor:start;white-space:normal;shape-padding:0;shape-margin:0;inline-size:0;clip-rule:nonzero;display:inline;overflow:visible;visibility:visible;isolation:auto;mix-blend-mode:normal;color-interpolation:sRGB;color-interpolation-filters:linearRGB;solid-color:#000000;solid-opacity:1;vector-effect:none;fill:#c8c8c8;fill-opacity:0.92549;fill-rule:nonzero;stroke:none;stroke-width:1.0031;stroke-linecap:round;stroke-linejoin:miter;stroke-miterlimit:4;stroke-dasharray:none;stroke-dashoffset:0;stroke-opacity:1;color-rendering:auto;image-rendering:auto;shape-rendering:auto;text-rendering:auto;enable-background:accumulate;stop-color:#000000;stop-opacity:1"
                 d="M 14.074346,-8.8475048 6.5932003,-1.4017792 6.7011719,39.101562 H 40.837891 V -8.8261719 Z m 0.172881,1.1202968 v 0 L 39.837891,-7.826172 V 38.101562 H 7.7011719 l 0.063355,-39.2615675 z"
                 id="path1090"
                 sodipodi:nodetypes="ccccccccccccc" />
              <path
                 id="path1179"
                 style="fill:#ebebeb;fill-opacity:1;stroke:none;stroke-width:0.501549;stroke-linecap:round;stroke-linejoin:bevel;stroke-miterlimit:4;stroke-dasharray:none;stroke-opacity:1;"
                 inkscape:transform-center-x="0.28543515"
                 inkscape:transform-center-y="-1.277771"
                 d="M 39.837156,29.85763 11.156397,29.87516 39.843029,-0.4130526 Z"
                 sodipodi:nodetypes="cccc" />
            </g>
            <path
               id="path1092"
               style="opacity:1;fill:#dcdcdc;fill-opacity:1;stroke:#c8c8c8;stroke-width:0.501549;stroke-linecap:round;stroke-linejoin:bevel;stroke-miterlimit:4;stroke-dasharray:none;stroke-opacity:0.788235;filter:url(#filter2733)"
               inkscape:transform-center-x="15.111287"
               inkscape:transform-center-y="-2.577538"
               d="m 5.0329278,4.0346181 -8.0096467,-0.058942 8.0226712,-7.895049 z"
               sodipodi:nodetypes="cccc" />
          </g>
          <path
             style="opacity:1;fill:#fd352b;fill-opacity:1;stroke:#dd2e25;stroke-width:1.0031px;stroke-linecap:butt;stroke-linejoin:miter;stroke-opacity:1"
             d="m -38.56692,45.54706 v 9.197995 h 2.512362 30.6228782 V 45.54706"
             id="path1076"
             sodipodi:nodetypes="ccccc" />
        </g>
      </g>
    </g>
    <path
       d="m 33.95048,25.267424 c -0.644123,-0.6978 -1.878691,-1.019861 -3.650028,-1.019861 -0.966183,0 -1.986044,0.107354 -2.952227,0.268385 -0.644122,-0.590446 -1.180891,-1.288245 -1.71766,-1.986044 -0.375738,-0.536769 -0.751476,-1.073538 -1.073538,-1.663983 0.536769,-1.502953 0.858831,-3.113258 0.966184,-4.723565 0,-1.449275 -0.590445,-3.005904 -2.200752,-3.005904 -0.536768,0 -1.073537,0.322061 -1.341921,0.805153 -0.697799,1.18089 -0.429414,3.59635 0.6978,6.119162 -0.375738,1.127215 -0.805154,2.254429 -1.288245,3.488997 -0.429415,1.073538 -0.912507,2.093398 -1.502953,3.059582 -1.663983,0.644122 -5.152979,2.254428 -5.47504,4.025764 -0.107354,0.536769 0.05368,1.073538 0.483092,1.395599 0.375738,0.322061 0.912507,0.536769 1.449276,0.483092 2.093397,0 4.186795,-2.898551 5.63607,-5.421364 0.805153,-0.268384 1.610306,-0.536768 2.469137,-0.751476 0.912506,-0.214707 1.771336,-0.429415 2.576489,-0.590445 2.254428,1.932366 4.240472,2.254428 5.206656,2.254428 1.341921,0 1.87869,-0.590446 2.039721,-1.073538 0.214707,-0.590445 0.107354,-1.234568 -0.322061,-1.663982 z m -1.449276,1.019861 c -0.05367,0.375737 -0.483091,0.644121 -1.01986,0.644121 -0.161031,0 -0.322061,0 -0.483092,-0.05368 -1.073537,-0.268384 -2.093398,-0.805152 -2.952228,-1.502952 0.6978,-0.107354 1.449276,-0.16103 2.147075,-0.16103 0.483092,0 0.966184,0.05368 1.449275,0.107353 0.483092,0.107354 1.019861,0.322061 0.85883,0.966184 z M 22.893045,14.424696 c 0.107354,-0.16103 0.268385,-0.268384 0.483092,-0.322061 0.536769,0 0.644122,0.590446 0.644122,1.127215 -0.05367,1.234567 -0.268384,2.415458 -0.644122,3.596349 -0.912507,-2.308105 -0.805154,-3.864734 -0.483092,-4.401503 z m 3.005905,10.305959 c -0.590447,0.107354 -1.180891,0.268385 -1.771337,0.429415 -0.429415,0.107354 -0.85883,0.268384 -1.341922,0.375739 0.214708,-0.483093 0.429416,-0.966185 0.644123,-1.395599 0.268384,-0.590446 0.483092,-1.180892 0.697799,-1.771337 0.214707,0.322061 0.375738,0.590445 0.590446,0.85883 0.375737,0.536769 0.805152,1.01986 1.180891,1.502952 z m -6.494901,3.113258 c -1.341922,2.147075 -2.683844,3.542673 -3.43532,3.542673 -0.107353,0 -0.268384,-0.05367 -0.32206,-0.107353 -0.161032,-0.107354 -0.214708,-0.322061 -0.161032,-0.483091 0.107355,-0.805154 1.663983,-1.932368 3.918412,-2.952229 z"
       fill="#ffffff"
       id="path4"
       style="fill:#fd352b;fill-opacity:1;stroke-width:1" />
    <text
       xml:space="preserve"
       style="font-style:normal;font-weight:normal;font-size:25.7678px;line-height:1.25;font-family:sans-serif;fill:#000000;fill-opacity:1;stroke:none;stroke-width:1"
       x="16.902613"
       y="44.639469"
       id="text2959"
       transform="scale(0.99272777,1.0073255)"><tspan
         sodipodi:role="line"
         id="tspan2957"
         x="16.902613"
         y="44.639469"
         style="font-style:normal;font-variant:normal;font-weight:800;font-stretch:normal;font-size:6.44196px;font-family:Cantarell;-inkscape-font-specification:'Cantarell Ultra-Bold';fill:#ffffff;stroke-width:1">P D F</tspan></text>
  </g>
</svg>
