<?xml version="1.0" encoding="UTF-8" standalone="no"?>
<svg
   xmlns:dc="http://purl.org/dc/elements/1.1/"
   xmlns:cc="http://creativecommons.org/ns#"
   xmlns:rdf="http://www.w3.org/1999/02/22-rdf-syntax-ns#"
   xmlns:svg="http://www.w3.org/2000/svg"
   xmlns="http://www.w3.org/2000/svg"
   xmlns:xlink="http://www.w3.org/1999/xlink"
   xmlns:sodipodi="http://sodipodi.sourceforge.net/DTD/sodipodi-0.dtd"
   xmlns:inkscape="http://www.inkscape.org/namespaces/inkscape"
   width="192"
   height="192"
   viewBox="0 0 50.799999 50.800001"
   version="1.1"
   id="svg1420"
   inkscape:version="1.0.2 (e86c870879, 2021-01-15)"
   sodipodi:docname="application-pdf.svg">
  <defs
     id="defs1414">
    <linearGradient
       inkscape:collect="always"
       id="linearGradient2207">
      <stop
         style="stop-color:#f24f47;stop-opacity:1"
         offset="0"
         id="stop2203" />
      <stop
         style="stop-color:#dd2e25;stop-opacity:1"
         offset="1"
         id="stop2205" />
    </linearGradient>
    <linearGradient
       inkscape:collect="always"
       xlink:href="#linearGradient2207"
       id="linearGradient2209"
       x1="-7.8838489"
       y1="29.337236"
       x2="26.256517"
       y2="29.337236"
       gradientUnits="userSpaceOnUse" />
    <linearGradient
       inkscape:collect="always"
       xlink:href="#linearGradient2207"
       id="linearGradient2216"
       gradientUnits="userSpaceOnUse"
       x1="0.81422937"
       y1="28.632391"
       x2="22.983606"
       y2="28.021097"
       gradientTransform="matrix(1.0035579,0,0,1.0084445,-0.01857073,-0.20527964)" />
    <linearGradient
       inkscape:collect="always"
       xlink:href="#linearGradient2207"
       id="linearGradient2276"
       gradientUnits="userSpaceOnUse"
       gradientTransform="matrix(1.0034987,0,0,1.0083551,20.34638,18.334693)"
       x1="0.81422937"
       y1="28.632391"
       x2="17.794632"
       y2="28.646532" />
    <linearGradient
       inkscape:collect="always"
       xlink:href="#linearGradient2207"
       id="linearGradient2590"
       gradientUnits="userSpaceOnUse"
       gradientTransform="matrix(1.0034987,0,0,1.0083551,20.34638,18.334693)"
       x1="0.81422937"
       y1="28.632391"
       x2="17.794632"
       y2="28.646532" />
  </defs>
  <sodipodi:namedview
     id="base"
     pagecolor="#ffffff"
     bordercolor="#666666"
     borderopacity="1.0"
     inkscape:pageopacity="0.0"
     inkscape:pageshadow="2"
     inkscape:zoom="3.9947917"
     inkscape:cx="96"
     inkscape:cy="96"
     inkscape:document-units="mm"
     inkscape:current-layer="layer1"
     inkscape:document-rotation="0"
     showgrid="false"
     units="px"
     inkscape:window-width="1680"
     inkscape:window-height="982"
     inkscape:window-x="0"
     inkscape:window-y="37"
     inkscape:window-maximized="1" />
  <metadata
     id="metadata1417">
    <rdf:RDF>
      <cc:Work
         rdf:about="">
        <dc:format>image/svg+xml</dc:format>
        <dc:type
           rdf:resource="http://purl.org/dc/dcmitype/StillImage" />
        <dc:title />
      </cc:Work>
    </rdf:RDF>
  </metadata>
  <g
     inkscape:label="Layer 1"
     inkscape:groupmode="layer"
     id="layer1">
    <g
       id="g2588"
       transform="matrix(0.99999279,0,0,1,-4.2403462,-2.3657816)"
       style="stroke-width:1">
      <g
         id="g2573"
         style="stroke-width:1">
        <path
           style="color:#000000;font-style:normal;font-variant:normal;font-weight:normal;font-stretch:normal;font-size:medium;line-height:normal;font-family:sans-serif;font-variant-ligatures:normal;font-variant-position:normal;font-variant-caps:normal;font-variant-numeric:normal;font-variant-alternates:normal;font-variant-east-asian:normal;font-feature-settings:normal;font-variation-settings:normal;text-indent:0;text-align:start;text-decoration:none;text-decoration-line:none;text-decoration-style:solid;text-decoration-color:#000000;letter-spacing:normal;word-spacing:normal;text-transform:none;writing-mode:lr-tb;direction:ltr;text-orientation:mixed;dominant-baseline:auto;baseline-shift:baseline;text-anchor:start;white-space:normal;shape-padding:0;shape-margin:0;inline-size:0;clip-rule:nonzero;display:inline;overflow:visible;visibility:visible;isolation:auto;mix-blend-mode:normal;color-interpolation:sRGB;color-interpolation-filters:linearRGB;solid-color:#000000;solid-opacity:1;vector-effect:none;fill:#f0f0f0;fill-opacity:1;fill-rule:nonzero;stroke:none;stroke-width:0.264585;stroke-linecap:round;stroke-linejoin:bevel;stroke-miterlimit:4;stroke-dasharray:none;stroke-dashoffset:0;stroke-opacity:1;color-rendering:auto;image-rendering:auto;shape-rendering:auto;text-rendering:auto;enable-background:accumulate;stop-color:#000000"
           d="m 21.625068,2.3785383 v 0 L 46.572645,2.3657816 V 52.902106 H 12.177934 l 0.03758,-40.78393 z"
           id="path2085"
           sodipodi:nodetypes="ccccccc" />
        <path
           style="color:#000000;font-style:normal;font-variant:normal;font-weight:normal;font-stretch:normal;font-size:medium;line-height:normal;font-family:sans-serif;font-variant-ligatures:normal;font-variant-position:normal;font-variant-caps:normal;font-variant-numeric:normal;font-variant-alternates:normal;font-variant-east-asian:normal;font-feature-settings:normal;font-variation-settings:normal;text-indent:0;text-align:start;text-decoration:none;text-decoration-line:none;text-decoration-style:solid;text-decoration-color:#000000;letter-spacing:normal;word-spacing:normal;text-transform:none;writing-mode:lr-tb;direction:ltr;text-orientation:mixed;dominant-baseline:auto;baseline-shift:baseline;text-anchor:start;white-space:normal;shape-padding:0;shape-margin:0;inline-size:0;clip-rule:nonzero;display:inline;overflow:visible;visibility:visible;isolation:auto;mix-blend-mode:normal;color-interpolation:sRGB;color-interpolation-filters:linearRGB;solid-color:#000000;solid-opacity:1;vector-effect:none;fill:#c7c7c7;fill-opacity:0.968627;fill-rule:nonzero;stroke:none;stroke-width:1;stroke-linecap:round;stroke-linejoin:bevel;stroke-miterlimit:4;stroke-dasharray:none;stroke-dashoffset:0;stroke-opacity:1;color-rendering:auto;image-rendering:auto;shape-rendering:auto;text-rendering:auto;enable-background:accumulate;stop-color:#000000"
           d="m 21.625068,2.3785383 -9.409559,9.7396377 v 0 l -0.03718,40.916744 0.13187,0.130863 H 46.704515 L 46.838352,53.03492 V 2.4988545 L 46.704515,2.3660396 Z m 0.388133,0.2733153 v 0 L 46.572645,2.6297162 V 52.902106 H 12.444034 l 0.04658,-40.400978 z"
           id="path2087"
           sodipodi:nodetypes="ccccccccccccccccc" />
        <g
           id="path2145"
           inkscape:transform-center-x="-0.32903365"
           inkscape:transform-center-y="-0.63921222"
           style="opacity:1;stroke-width:1"
           transform="translate(-0.33400418,-0.63573054)">
          <path
             style="color:#000000;font-style:normal;font-variant:normal;font-weight:normal;font-stretch:normal;font-size:medium;line-height:normal;font-family:sans-serif;font-variant-ligatures:normal;font-variant-position:normal;font-variant-caps:normal;font-variant-numeric:normal;font-variant-alternates:normal;font-variant-east-asian:normal;font-feature-settings:normal;font-variation-settings:normal;text-indent:0;text-align:start;text-decoration:none;text-decoration-line:none;text-decoration-style:solid;text-decoration-color:#000000;letter-spacing:normal;word-spacing:normal;text-transform:none;writing-mode:lr-tb;direction:ltr;text-orientation:mixed;dominant-baseline:auto;baseline-shift:baseline;text-anchor:start;white-space:normal;shape-padding:0;shape-margin:0;inline-size:0;clip-rule:nonzero;display:inline;overflow:visible;visibility:visible;isolation:auto;mix-blend-mode:normal;color-interpolation:sRGB;color-interpolation-filters:linearRGB;solid-color:#000000;solid-opacity:1;vector-effect:none;fill:#dcdcdc;fill-opacity:1;fill-rule:nonzero;stroke:none;stroke-width:0.265001;stroke-linecap:round;stroke-linejoin:bevel;stroke-miterlimit:4;stroke-dasharray:none;stroke-dashoffset:0;stroke-opacity:0.968627;color-rendering:auto;image-rendering:auto;shape-rendering:auto;text-rendering:auto;enable-background:accumulate;stop-color:#000000;stop-opacity:1"
             d="m 22.329624,13.111832 -9.505007,0.02503 9.522588,-9.8492739 z"
             id="path2150"
             sodipodi:nodetypes="cccc" />
        </g>
      </g>
      <path
         id="path2246"
         style="opacity:0.4;fill:#dcdcdc;fill-opacity:1;stroke:none;stroke-width:1.05833;stroke-linecap:round;stroke-linejoin:bevel;stroke-miterlimit:4;stroke-dasharray:none;stroke-opacity:0.968627"
         inkscape:transform-center-x="-0.31066567"
         inkscape:transform-center-y="-2.6160327"
         d="M 46.655247,42.849301 16.008034,43.029684 46.599636,12.863616 Z"
         sodipodi:nodetypes="cccc" />
      <g
         id="g2490"
         style="stroke-width:1">
        <g
           id="rect2154"
           style="opacity:1;stroke-width:1.00007;stroke-miterlimit:4;stroke-dasharray:none"
           transform="matrix(0.99994104,0,0,0.99991133,20.325436,18.539919)">
          <path
             style="color:#000000;font-style:normal;font-variant:normal;font-weight:normal;font-stretch:normal;font-size:medium;line-height:normal;font-family:sans-serif;font-variant-ligatures:normal;font-variant-position:normal;font-variant-caps:normal;font-variant-numeric:normal;font-variant-alternates:normal;font-variant-east-asian:normal;font-feature-settings:normal;font-variation-settings:normal;text-indent:0;text-align:start;text-decoration:none;text-decoration-line:none;text-decoration-style:solid;text-decoration-color:#000000;letter-spacing:normal;word-spacing:normal;text-transform:none;writing-mode:lr-tb;direction:ltr;text-orientation:mixed;dominant-baseline:auto;baseline-shift:baseline;text-anchor:start;white-space:normal;shape-padding:0;shape-margin:0;inline-size:0;clip-rule:nonzero;display:inline;overflow:visible;visibility:visible;isolation:auto;mix-blend-mode:normal;color-interpolation:sRGB;color-interpolation-filters:linearRGB;solid-color:#000000;solid-opacity:1;vector-effect:none;fill:#dd2e25;fill-opacity:1;fill-rule:nonzero;stroke:none;stroke-width:1.00007;stroke-linecap:round;stroke-linejoin:bevel;stroke-miterlimit:4;stroke-dasharray:none;stroke-dashoffset:0;stroke-opacity:1;color-rendering:auto;image-rendering:auto;shape-rendering:auto;text-rendering:auto;enable-background:accumulate;stop-color:#000000"
             d="m -7.8909523,24.309273 -0.2533006,0.0077 -0.00348,10.179153 0.1328125,0.132812 H 26.379616 l 0.132812,-0.132812 0.0023,-10.18137 v 0 z m 0,0 34.1403663,0.0023 -6.58e-4,10.053661 H -7.8821034 Z"
             id="path2161"
             sodipodi:nodetypes="cccccccccccccc" />
        </g>
        <path
           style="color:#000000;font-style:normal;font-variant:normal;font-weight:normal;font-stretch:normal;font-size:medium;line-height:normal;font-family:sans-serif;font-variant-ligatures:normal;font-variant-position:normal;font-variant-caps:normal;font-variant-numeric:normal;font-variant-alternates:normal;font-variant-east-asian:normal;font-feature-settings:normal;font-variation-settings:normal;text-indent:0;text-align:start;text-decoration:none;text-decoration-line:none;text-decoration-style:solid;text-decoration-color:#000000;letter-spacing:normal;word-spacing:normal;text-transform:none;writing-mode:lr-tb;direction:ltr;text-orientation:mixed;dominant-baseline:auto;baseline-shift:baseline;text-anchor:start;white-space:normal;shape-padding:0;shape-margin:0;inline-size:0;clip-rule:nonzero;display:inline;overflow:visible;visibility:visible;isolation:auto;mix-blend-mode:normal;color-interpolation:sRGB;color-interpolation-filters:linearRGB;solid-color:#000000;solid-opacity:1;vector-effect:none;fill:url(#linearGradient2590);fill-opacity:1;fill-rule:nonzero;stroke:none;stroke-width:1.00001;stroke-linecap:round;stroke-linejoin:bevel;stroke-miterlimit:4;stroke-dasharray:none;stroke-dashoffset:0;stroke-opacity:1;color-rendering:auto;image-rendering:auto;shape-rendering:auto;text-rendering:auto;enable-background:accumulate;stop-color:#000000"
           d="m 12.434949,42.847036 34.259812,0.0023 -6.6e-4,10.137696 H 12.443829 Z"
           id="path2159"
           sodipodi:nodetypes="ccccc" />
      </g>
      <path
         d="m 40.510963,29.430414 c -0.748538,-0.809529 -2.183237,-1.18316 -4.241716,-1.18316 -1.122807,0 -2.307993,0.124543 -3.430798,0.31136 -0.748538,-0.68499 -1.37232,-1.494519 -1.996102,-2.304051 -0.436647,-0.622716 -0.873295,-1.245431 -1.247564,-1.930419 0.623782,-1.743606 0.998051,-3.611753 1.122808,-5.479902 0,-1.681333 -0.68616,-3.487208 -2.557506,-3.487208 -0.623781,0 -1.247563,0.373629 -1.559452,0.934074 -0.810917,1.369974 -0.499026,4.172197 0.810916,7.098962 -0.436646,1.307703 -0.935674,2.615406 -1.497077,4.047653 -0.499024,1.245434 -1.060429,2.428593 -1.746588,3.549482 -1.933724,0.747259 -5.988303,2.615407 -6.362573,4.670369 -0.124757,0.622717 0.06238,1.245432 0.561405,1.619063 0.436646,0.373629 1.060428,0.622717 1.68421,0.560444 2.432749,0 4.865496,-3.362666 6.549707,-6.289433 0.935671,-0.311357 1.871345,-0.622714 2.869396,-0.871801 1.060429,-0.249085 2.058479,-0.498172 2.99415,-0.684988 2.619884,2.241778 4.927875,2.615408 6.050683,2.615408 1.559452,0 2.183235,-0.684989 2.37037,-1.245433 0.249511,-0.684987 0.124757,-1.432247 -0.374269,-1.93042 z m -1.684211,1.183162 c -0.06237,0.4359 -0.561403,0.747258 -1.185185,0.747258 -0.187135,0 -0.374268,0 -0.561403,-0.06228 -1.247563,-0.311358 -2.432748,-0.934074 -3.430799,-1.743605 0.810917,-0.124543 1.68421,-0.186814 2.495126,-0.186814 0.561405,0 1.122808,0.06228 1.68421,0.124542 0.561404,0.124544 1.185187,0.37363 0.998051,1.120889 z M 27.661061,16.851551 c 0.124756,-0.186814 0.311891,-0.311358 0.561405,-0.373629 0.623782,0 0.748536,0.684987 0.748536,1.307705 -0.06237,1.432245 -0.311889,2.80222 -0.748536,4.172195 -1.060431,-2.677678 -0.935675,-4.483554 -0.561405,-5.106271 z m 3.493178,11.956148 c -0.686163,0.124544 -1.37232,0.311358 -2.05848,0.498172 -0.499026,0.124543 -0.998051,0.311358 -1.559455,0.435902 0.249513,-0.560445 0.499028,-1.120888 0.74854,-1.619062 0.311889,-0.684988 0.561404,-1.369974 0.810915,-2.054962 0.249512,0.373629 0.436647,0.684988 0.68616,0.996346 0.436646,0.622716 0.935672,1.183159 1.37232,1.743604 z m -7.547759,3.611753 c -1.559452,2.490863 -3.118908,4.109925 -3.992202,4.109925 -0.124756,0 -0.311891,-0.06227 -0.374268,-0.124542 -0.187136,-0.124544 -0.249513,-0.373629 -0.187136,-0.560444 0.124758,-0.934076 1.933723,-2.241779 4.553606,-3.424939 z"
         fill="#ffffff"
         id="path4"
         style="fill:#fd352b;fill-opacity:1;stroke-width:0.264584" />
      <g
         aria-label="P D F"
         transform="scale(1.0313107,0.96963987)"
         id="text2959"
         style="font-style:normal;font-weight:normal;font-size:28.3089px;line-height:1.25;font-family:sans-serif;fill:#000000;fill-opacity:1;stroke:none;stroke-width:0.264584">
        <path
           d="m 21.006084,51.889404 h 1.224366 v -1.443761 h 0.403404 c 1.330525,0 2.208105,-0.728958 2.208105,-1.83301 0,-1.026203 -0.750189,-1.634847 -2.002864,-1.634847 h -1.833011 z m 1.733929,-3.835875 c 0.495408,0 0.82804,0.268936 0.82804,0.679417 0,0.396327 -0.276014,0.636954 -0.714804,0.636954 H 22.23045 v -1.316371 z"
           style="font-style:normal;font-variant:normal;font-weight:800;font-stretch:normal;font-size:7.07726px;font-family:Cantarell;-inkscape-font-specification:'Cantarell Ultra-Bold';fill:#ffffff;stroke-width:0.264584"
           id="path2670" />
        <path
           d="m 26.568806,51.889404 h 1.748083 c 1.684388,0 2.795518,-1.012048 2.795518,-2.554891 0,-1.479147 -1.004971,-2.356727 -2.703514,-2.356727 h -1.840087 z m 1.203134,-1.054511 v -2.802595 h 0.566181 c 0.941275,0 1.500379,0.537871 1.500379,1.443761 0,0.87758 -0.488331,1.358834 -1.380066,1.358834 z"
           style="font-style:normal;font-variant:normal;font-weight:800;font-stretch:normal;font-size:7.07726px;font-family:Cantarell;-inkscape-font-specification:'Cantarell Ultra-Bold';fill:#ffffff;stroke-width:0.264584"
           id="path2672" />
        <path
           d="m 32.89587,51.889404 h 1.245598 v -1.818856 h 2.002865 v -1.075743 h -2.002865 v -0.941276 h 2.257646 V 46.977786 H 32.89587 Z"
           style="font-style:normal;font-variant:normal;font-weight:800;font-stretch:normal;font-size:7.07726px;font-family:Cantarell;-inkscape-font-specification:'Cantarell Ultra-Bold';fill:#ffffff;stroke-width:0.264584"
           id="path2674" />
      </g>
    </g>
  </g>
</svg>
