<?xml version="1.0" encoding="UTF-8" standalone="no"?>
<svg
   xmlns:dc="http://purl.org/dc/elements/1.1/"
   xmlns:cc="http://creativecommons.org/ns#"
   xmlns:rdf="http://www.w3.org/1999/02/22-rdf-syntax-ns#"
   xmlns:svg="http://www.w3.org/2000/svg"
   xmlns="http://www.w3.org/2000/svg"
   xmlns:sodipodi="http://sodipodi.sourceforge.net/DTD/sodipodi-0.dtd"
   xmlns:inkscape="http://www.inkscape.org/namespaces/inkscape"
   width="48"
   height="48"
   version="1"
   id="svg16"
   sodipodi:docname="application-pdf.svg"
   inkscape:version="1.0.2 (e86c870879, 2021-01-15)">
  <metadata
     id="metadata22">
    <rdf:RDF>
      <cc:Work
         rdf:about="">
        <dc:format>image/svg+xml</dc:format>
        <dc:type
           rdf:resource="http://purl.org/dc/dcmitype/StillImage" />
        <dc:title />
      </cc:Work>
    </rdf:RDF>
  </metadata>
  <defs
     id="defs20">
    <filter
       inkscape:collect="always"
       style="color-interpolation-filters:sRGB"
       id="filter2733"
       x="-0.00075717908"
       width="1.0015144"
       y="-0.00076371708"
       height="1.0015274">
      <feGaussianBlur
         inkscape:collect="always"
         stdDeviation="0.0025310828"
         id="feGaussianBlur2735" />
    </filter>
  </defs>
  <sodipodi:namedview
     pagecolor="#ffffff"
     bordercolor="#666666"
     borderopacity="1"
     objecttolerance="10"
     gridtolerance="10"
     guidetolerance="10"
     inkscape:pageopacity="0"
     inkscape:pageshadow="2"
     inkscape:window-width="1680"
     inkscape:window-height="982"
     id="namedview18"
     showgrid="false"
     inkscape:zoom="15.979167"
     inkscape:cx="24"
     inkscape:cy="24"
     inkscape:window-x="0"
     inkscape:window-y="37"
     inkscape:window-maximized="1"
     inkscape:current-layer="svg16"
     inkscape:document-rotation="0" />
  <g
     id="g1068"
     transform="translate(27.028932,2.3872637)" />
  <g
     id="g2895">
    <g
       id="g2809"
       transform="matrix(0.99282868,0,0,1.001014,4.9407803,15.965791)"
       style="stroke-width:1.0031">
      <g
         id="g1177"
         transform="translate(7.7122056,-2.6536762)"
         style="stroke-width:1.0031">
        <g
           id="g1127"
           transform="translate(33.537609,-20.591154)"
           style="stroke-width:1.0031">
          <g
             id="g1099"
             transform="translate(-35.772135,11.826684)"
             style="stroke-width:1.0031">
            <g
               id="rect1070"
               style="opacity:1;stroke-width:1.0031"
               transform="translate(-9.9967862,4.3160333)">
              <path
                 style="color:#000000;font-style:normal;font-variant:normal;font-weight:normal;font-stretch:normal;font-size:medium;line-height:normal;font-family:sans-serif;font-variant-ligatures:normal;font-variant-position:normal;font-variant-caps:normal;font-variant-numeric:normal;font-variant-alternates:normal;font-variant-east-asian:normal;font-feature-settings:normal;font-variation-settings:normal;text-indent:0;text-align:start;text-decoration:none;text-decoration-line:none;text-decoration-style:solid;text-decoration-color:#000000;letter-spacing:normal;word-spacing:normal;text-transform:none;writing-mode:lr-tb;direction:ltr;text-orientation:mixed;dominant-baseline:auto;baseline-shift:baseline;text-anchor:start;white-space:normal;shape-padding:0;shape-margin:0;inline-size:0;clip-rule:nonzero;display:inline;overflow:visible;visibility:visible;isolation:auto;mix-blend-mode:normal;color-interpolation:sRGB;color-interpolation-filters:linearRGB;solid-color:#000000;solid-opacity:1;vector-effect:none;fill:#f0f0f0;fill-opacity:1;fill-rule:nonzero;stroke:none;stroke-width:1.0031;stroke-linecap:round;stroke-linejoin:miter;stroke-miterlimit:4;stroke-dasharray:none;stroke-dashoffset:0;stroke-opacity:1;color-rendering:auto;image-rendering:auto;shape-rendering:auto;text-rendering:auto;enable-background:accumulate;stop-color:#000000;stop-opacity:1"
                 d="m 14.545888,-8.8140727 v 0 l 25.791356,0.4878064 V 38.602338 H 7.2020016 L 6.6680526,-1.0770545 Z"
                 id="path1088"
                 sodipodi:nodetypes="ccccccc" />
              <path
                 style="color:#000000;font-style:normal;font-variant:normal;font-weight:normal;font-stretch:normal;font-size:medium;line-height:normal;font-family:sans-serif;font-variant-ligatures:normal;font-variant-position:normal;font-variant-caps:normal;font-variant-numeric:normal;font-variant-alternates:normal;font-variant-east-asian:normal;font-feature-settings:normal;font-variation-settings:normal;text-indent:0;text-align:start;text-decoration:none;text-decoration-line:none;text-decoration-style:solid;text-decoration-color:#000000;letter-spacing:normal;word-spacing:normal;text-transform:none;writing-mode:lr-tb;direction:ltr;text-orientation:mixed;dominant-baseline:auto;baseline-shift:baseline;text-anchor:start;white-space:normal;shape-padding:0;shape-margin:0;inline-size:0;clip-rule:nonzero;display:inline;overflow:visible;visibility:visible;isolation:auto;mix-blend-mode:normal;color-interpolation:sRGB;color-interpolation-filters:linearRGB;solid-color:#000000;solid-opacity:1;vector-effect:none;fill:#c8c8c8;fill-opacity:0.92549;fill-rule:nonzero;stroke:none;stroke-width:0.50154831;stroke-linecap:round;stroke-linejoin:miter;stroke-miterlimit:4;stroke-dasharray:none;stroke-dashoffset:0;stroke-opacity:1;color-rendering:auto;image-rendering:auto;shape-rendering:auto;text-rendering:auto;enable-background:accumulate;stop-color:#000000;stop-opacity:1"
                 d="M 14.545888,-8.8140727 6.6680526,-1.0770545 6.7011719,39.101562 H 40.837891 V -8.8261719 Z m -0.298661,1.0868647 v 0 L 39.837891,-7.826172 V 38.101562 H 7.7011719 l 0.063355,-39.2615675 z"
                 id="path1090"
                 sodipodi:nodetypes="ccccccccccccc" />
              <path
                 id="path1179"
                 style="opacity:0.425733;fill:#dcdcdc;fill-opacity:1;stroke:none;stroke-width:0.501549;stroke-linecap:round;stroke-linejoin:bevel;stroke-miterlimit:4;stroke-dasharray:none;stroke-opacity:1"
                 inkscape:transform-center-x="0.28543515"
                 inkscape:transform-center-y="-1.277771"
                 d="M 40.337241,29.404343 10.989426,29.445317 40.226678,-0.57632693 Z"
                 sodipodi:nodetypes="cccc" />
            </g>
            <path
               id="path1092"
               style="opacity:1;fill:#dcdcdc;fill-opacity:1;stroke:#c8c8c8;stroke-width:0.501548;stroke-linecap:round;stroke-linejoin:bevel;stroke-miterlimit:4;stroke-dasharray:none;stroke-opacity:1;filter:url(#filter2733)"
               inkscape:transform-center-x="15.111287"
               inkscape:transform-center-y="-2.577538"
               d="m 4.7661895,3.6293619 c -2.6698822,-0.019647 -1.8412925,0.070948 -7.6676344,0.0513 l 7.6873628,-7.5209354 z"
               sodipodi:nodetypes="cccc" />
          </g>
          <path
             style="opacity:1;fill:#fd352b;fill-opacity:1;stroke:#dd2e25;stroke-width:1.0031px;stroke-linecap:butt;stroke-linejoin:miter;stroke-opacity:1"
             d="m -38.56692,45.54706 v 9.197995 h 2.512362 30.6228782 V 45.54706"
             id="path1076"
             sodipodi:nodetypes="ccccc" />
        </g>
      </g>
    </g>
    <path
       d="m 35.514599,24.966808 c -0.76422,-0.827904 -2.228973,-1.210013 -4.330575,-1.210013 -1.146327,0 -2.356341,0.12737 -3.502668,0.318425 -0.764218,-0.700534 -1.401068,-1.528438 -2.037917,-2.356341 -0.445794,-0.636849 -0.891589,-1.273699 -1.273699,-1.974232 0.636849,-1.783178 1.01896,-3.693724 1.146329,-5.604272 0,-1.719492 -0.700534,-3.566353 -2.611082,-3.566353 -0.636848,0 -1.273697,0.382109 -1.592121,0.955273 -0.827904,1.401067 -0.509478,4.266888 0.827904,7.260077 -0.445794,1.337384 -0.955274,2.674767 -1.528438,4.139519 -0.509479,1.273699 -1.082643,2.483712 -1.783178,3.63004 -1.974231,0.764219 -6.113749,2.674766 -6.495859,4.776366 -0.12737,0.63685 0.06369,1.273699 0.573165,1.655808 0.445794,0.382109 1.082643,0.63685 1.719493,0.573165 2.48371,0 4.967421,-3.438985 6.686913,-6.432176 0.955273,-0.318424 1.910547,-0.636848 2.929506,-0.891588 1.082643,-0.254739 2.101601,-0.509479 3.056875,-0.700533 2.674765,2.292655 5.031106,2.674765 6.177435,2.674765 1.592121,0 2.228971,-0.700534 2.420026,-1.273699 0.254739,-0.700533 0.12737,-1.464752 -0.382109,-1.974231 z m -1.719493,1.210014 c -0.06368,0.445793 -0.573163,0.764217 -1.210013,0.764217 -0.191055,0 -0.382109,0 -0.573164,-0.06369 -1.273698,-0.318424 -2.483711,-0.955273 -3.50267,-1.783177 0.827905,-0.12737 1.719493,-0.191054 2.547396,-0.191054 0.573165,0 1.146329,0.06369 1.719492,0.127369 0.573164,0.12737 1.210014,0.382109 1.018959,1.146328 z M 22.395509,12.102458 c 0.12737,-0.191054 0.318426,-0.318424 0.573165,-0.382109 0.636849,0 0.764218,0.700534 0.764218,1.337384 -0.06368,1.464751 -0.318424,2.865819 -0.764218,4.266887 -1.082644,-2.738451 -0.955275,-4.585312 -0.573165,-5.222162 z m 3.566355,12.227501 c -0.700536,0.12737 -1.401068,0.318425 -2.101602,0.509479 -0.509479,0.12737 -1.018959,0.318424 -1.592123,0.445796 0.25474,-0.573166 0.509481,-1.14633 0.76422,-1.655808 0.318424,-0.700535 0.573164,-1.401069 0.827903,-2.101602 0.254739,0.382109 0.445794,0.700533 0.700534,1.018958 0.445793,0.63685 0.955273,1.210013 1.401068,1.783177 z m -7.705873,3.693724 c -1.592122,2.547396 -3.184245,4.203203 -4.075834,4.203203 -0.127369,0 -0.318424,-0.06368 -0.382108,-0.127369 -0.191056,-0.12737 -0.25474,-0.382109 -0.191056,-0.573163 0.127371,-0.955275 1.974232,-2.292657 4.648998,-3.502671 z"
       fill="#ffffff"
       id="path4"
       style="fill:#fd352b;fill-opacity:1;stroke-width:1" />
    <text
       xml:space="preserve"
       style="font-style:normal;font-weight:normal;font-size:25.7678px;line-height:1.25;font-family:sans-serif;fill:#000000;fill-opacity:1;stroke:none;stroke-width:1"
       x="16.902613"
       y="44.639469"
       id="text2959"
       transform="scale(0.99272777,1.0073255)"><tspan
         sodipodi:role="line"
         id="tspan2957"
         x="16.902613"
         y="44.639469"
         style="font-style:normal;font-variant:normal;font-weight:800;font-stretch:normal;font-size:6.44196px;font-family:Cantarell;-inkscape-font-specification:'Cantarell Ultra-Bold';fill:#ffffff;stroke-width:1">P D F</tspan></text>
  </g>
</svg>
