<?xml version="1.0" encoding="UTF-8" standalone="no"?>
<svg
   xmlns:dc="http://purl.org/dc/elements/1.1/"
   xmlns:cc="http://creativecommons.org/ns#"
   xmlns:rdf="http://www.w3.org/1999/02/22-rdf-syntax-ns#"
   xmlns:svg="http://www.w3.org/2000/svg"
   xmlns="http://www.w3.org/2000/svg"
   xmlns:xlink="http://www.w3.org/1999/xlink"
   xmlns:sodipodi="http://sodipodi.sourceforge.net/DTD/sodipodi-0.dtd"
   xmlns:inkscape="http://www.inkscape.org/namespaces/inkscape"
   width="192"
   height="192"
   viewBox="0 0 50.799999 50.800001"
   version="1.1"
   id="svg1420"
   inkscape:version="1.0.2 (e86c870879, 2021-01-15)"
   sodipodi:docname="application-pdf.svg">
  <defs
     id="defs1414">
    <linearGradient
       inkscape:collect="always"
       id="linearGradient2207">
      <stop
         style="stop-color:#f24f47;stop-opacity:1"
         offset="0"
         id="stop2203" />
      <stop
         style="stop-color:#dd2e25;stop-opacity:1"
         offset="1"
         id="stop2205" />
    </linearGradient>
    <linearGradient
       inkscape:collect="always"
       xlink:href="#linearGradient2207"
       id="linearGradient2209"
       x1="-7.8838489"
       y1="29.337236"
       x2="26.256517"
       y2="29.337236"
       gradientUnits="userSpaceOnUse" />
    <linearGradient
       inkscape:collect="always"
       xlink:href="#linearGradient2207"
       id="linearGradient2216"
       gradientUnits="userSpaceOnUse"
       x1="0.81422937"
       y1="28.632391"
       x2="22.983606"
       y2="28.021097"
       gradientTransform="matrix(1.0035579,0,0,1.0084445,-0.01857073,-0.20527964)" />
    <linearGradient
       inkscape:collect="always"
       xlink:href="#linearGradient2207"
       id="linearGradient2276"
       gradientUnits="userSpaceOnUse"
       gradientTransform="matrix(1.0034987,0,0,1.0083551,20.34638,18.334693)"
       x1="0.81422937"
       y1="28.632391"
       x2="17.794632"
       y2="28.646532" />
    <filter
       inkscape:collect="always"
       style="color-interpolation-filters:sRGB"
       id="filter2483"
       x="-0.011905803"
       width="1.0238116"
       y="-0.012095699"
       height="1.0241914">
      <feGaussianBlur
         inkscape:collect="always"
         stdDeviation="0.1520332"
         id="feGaussianBlur2485" />
    </filter>
    <linearGradient
       inkscape:collect="always"
       xlink:href="#linearGradient2207"
       id="linearGradient2590"
       gradientUnits="userSpaceOnUse"
       gradientTransform="matrix(1.0034987,0,0,1.0083551,20.34638,18.334693)"
       x1="0.81422937"
       y1="28.632391"
       x2="17.794632"
       y2="28.646532" />
  </defs>
  <sodipodi:namedview
     id="base"
     pagecolor="#ffffff"
     bordercolor="#666666"
     borderopacity="1.0"
     inkscape:pageopacity="0.0"
     inkscape:pageshadow="2"
     inkscape:zoom="3.9947917"
     inkscape:cx="96"
     inkscape:cy="96"
     inkscape:document-units="mm"
     inkscape:current-layer="layer1"
     inkscape:document-rotation="0"
     showgrid="false"
     units="px"
     inkscape:window-width="1680"
     inkscape:window-height="982"
     inkscape:window-x="0"
     inkscape:window-y="37"
     inkscape:window-maximized="1" />
  <metadata
     id="metadata1417">
    <rdf:RDF>
      <cc:Work
         rdf:about="">
        <dc:format>image/svg+xml</dc:format>
        <dc:type
           rdf:resource="http://purl.org/dc/dcmitype/StillImage" />
        <dc:title></dc:title>
      </cc:Work>
    </rdf:RDF>
  </metadata>
  <g
     inkscape:label="Layer 1"
     inkscape:groupmode="layer"
     id="layer1">
    <g
       id="g2588"
       transform="matrix(0.99999279,0,0,1,-4.2403462,-2.3657816)"
       style="stroke-width:1">
      <g
         id="g2573"
         style="stroke-width:1">
        <path
           style="color:#000000;font-style:normal;font-variant:normal;font-weight:normal;font-stretch:normal;font-size:medium;line-height:normal;font-family:sans-serif;font-variant-ligatures:normal;font-variant-position:normal;font-variant-caps:normal;font-variant-numeric:normal;font-variant-alternates:normal;font-variant-east-asian:normal;font-feature-settings:normal;font-variation-settings:normal;text-indent:0;text-align:start;text-decoration:none;text-decoration-line:none;text-decoration-style:solid;text-decoration-color:#000000;letter-spacing:normal;word-spacing:normal;text-transform:none;writing-mode:lr-tb;direction:ltr;text-orientation:mixed;dominant-baseline:auto;baseline-shift:baseline;text-anchor:start;white-space:normal;shape-padding:0;shape-margin:0;inline-size:0;clip-rule:nonzero;display:inline;overflow:visible;visibility:visible;isolation:auto;mix-blend-mode:normal;color-interpolation:sRGB;color-interpolation-filters:linearRGB;solid-color:#000000;solid-opacity:1;vector-effect:none;fill:#f0f0f0;fill-opacity:1;fill-rule:nonzero;stroke:none;stroke-width:0.264585;stroke-linecap:round;stroke-linejoin:bevel;stroke-miterlimit:4;stroke-dasharray:none;stroke-dashoffset:0;stroke-opacity:1;color-rendering:auto;image-rendering:auto;shape-rendering:auto;text-rendering:auto;enable-background:accumulate;stop-color:#000000"
           d="m 21.625068,2.3785383 v 0 L 46.572645,2.3657816 V 52.902106 H 12.177934 l 0.03758,-40.78393 z"
           id="path2085"
           sodipodi:nodetypes="ccccccc" />
        <path
           style="color:#000000;font-style:normal;font-variant:normal;font-weight:normal;font-stretch:normal;font-size:medium;line-height:normal;font-family:sans-serif;font-variant-ligatures:normal;font-variant-position:normal;font-variant-caps:normal;font-variant-numeric:normal;font-variant-alternates:normal;font-variant-east-asian:normal;font-feature-settings:normal;font-variation-settings:normal;text-indent:0;text-align:start;text-decoration:none;text-decoration-line:none;text-decoration-style:solid;text-decoration-color:#000000;letter-spacing:normal;word-spacing:normal;text-transform:none;writing-mode:lr-tb;direction:ltr;text-orientation:mixed;dominant-baseline:auto;baseline-shift:baseline;text-anchor:start;white-space:normal;shape-padding:0;shape-margin:0;inline-size:0;clip-rule:nonzero;display:inline;overflow:visible;visibility:visible;isolation:auto;mix-blend-mode:normal;color-interpolation:sRGB;color-interpolation-filters:linearRGB;solid-color:#000000;solid-opacity:1;vector-effect:none;fill:#c7c7c7;fill-opacity:0.968627;fill-rule:nonzero;stroke:none;stroke-width:1;stroke-linecap:round;stroke-linejoin:bevel;stroke-miterlimit:4;stroke-dasharray:none;stroke-dashoffset:0;stroke-opacity:1;color-rendering:auto;image-rendering:auto;shape-rendering:auto;text-rendering:auto;enable-background:accumulate;stop-color:#000000"
           d="m 21.625068,2.3785383 -9.409559,9.7396377 v 0 l -0.03718,40.916744 0.13187,0.130863 H 46.704515 L 46.838352,53.03492 V 2.4988545 L 46.704515,2.3660396 Z m 0.388133,0.2733153 v 0 L 46.572645,2.6297162 V 52.902106 H 12.444034 l 0.04658,-40.400978 z"
           id="path2087"
           sodipodi:nodetypes="ccccccccccccccccc" />
        <g
           id="path2145"
           inkscape:transform-center-x="-0.32903365"
           inkscape:transform-center-y="-0.63921222"
           style="opacity:1;stroke-width:1"
           transform="translate(-0.33400418,-0.63573054)">
          <path
             style="color:#000000;font-style:normal;font-variant:normal;font-weight:normal;font-stretch:normal;font-size:medium;line-height:normal;font-family:sans-serif;font-variant-ligatures:normal;font-variant-position:normal;font-variant-caps:normal;font-variant-numeric:normal;font-variant-alternates:normal;font-variant-east-asian:normal;font-feature-settings:normal;font-variation-settings:normal;text-indent:0;text-align:start;text-decoration:none;text-decoration-line:none;text-decoration-style:solid;text-decoration-color:#000000;letter-spacing:normal;word-spacing:normal;text-transform:none;writing-mode:lr-tb;direction:ltr;text-orientation:mixed;dominant-baseline:auto;baseline-shift:baseline;text-anchor:start;white-space:normal;shape-padding:0;shape-margin:0;inline-size:0;clip-rule:nonzero;display:inline;overflow:visible;visibility:visible;isolation:auto;mix-blend-mode:normal;color-interpolation:sRGB;color-interpolation-filters:linearRGB;solid-color:#000000;solid-opacity:1;vector-effect:none;fill:#dcdcdc;fill-opacity:1;fill-rule:nonzero;stroke:none;stroke-width:0.265001;stroke-linecap:round;stroke-linejoin:bevel;stroke-miterlimit:4;stroke-dasharray:none;stroke-dashoffset:0;stroke-opacity:0.968627;color-rendering:auto;image-rendering:auto;shape-rendering:auto;text-rendering:auto;enable-background:accumulate;stop-color:#000000;stop-opacity:1"
             d="m 22.329624,13.111832 -9.505007,0.02503 9.522588,-9.8492739 z"
             id="path2150"
             sodipodi:nodetypes="cccc" />
        </g>
      </g>
      <path
         id="path2246"
         style="opacity:0.4;fill:#dcdcdc;fill-opacity:1;stroke:none;stroke-width:1.05833;stroke-linecap:round;stroke-linejoin:bevel;stroke-miterlimit:4;stroke-dasharray:none;stroke-opacity:0.968627"
         inkscape:transform-center-x="-0.31066567"
         inkscape:transform-center-y="-2.6160327"
         d="M 46.655247,42.849301 16.008034,43.029684 46.599636,12.863616 Z"
         sodipodi:nodetypes="cccc" />
      <g
         id="g2490"
         style="stroke-width:1">
        <g
           id="rect2154"
           style="opacity:1;stroke-width:1.00007;stroke-miterlimit:4;stroke-dasharray:none"
           transform="matrix(0.99994104,0,0,0.99991133,20.325436,18.539919)">
          <path
             style="color:#000000;font-style:normal;font-variant:normal;font-weight:normal;font-stretch:normal;font-size:medium;line-height:normal;font-family:sans-serif;font-variant-ligatures:normal;font-variant-position:normal;font-variant-caps:normal;font-variant-numeric:normal;font-variant-alternates:normal;font-variant-east-asian:normal;font-feature-settings:normal;font-variation-settings:normal;text-indent:0;text-align:start;text-decoration:none;text-decoration-line:none;text-decoration-style:solid;text-decoration-color:#000000;letter-spacing:normal;word-spacing:normal;text-transform:none;writing-mode:lr-tb;direction:ltr;text-orientation:mixed;dominant-baseline:auto;baseline-shift:baseline;text-anchor:start;white-space:normal;shape-padding:0;shape-margin:0;inline-size:0;clip-rule:nonzero;display:inline;overflow:visible;visibility:visible;isolation:auto;mix-blend-mode:normal;color-interpolation:sRGB;color-interpolation-filters:linearRGB;solid-color:#000000;solid-opacity:1;vector-effect:none;fill:#dd2e25;fill-opacity:1;fill-rule:nonzero;stroke:none;stroke-width:1.00007;stroke-linecap:round;stroke-linejoin:bevel;stroke-miterlimit:4;stroke-dasharray:none;stroke-dashoffset:0;stroke-opacity:1;color-rendering:auto;image-rendering:auto;shape-rendering:auto;text-rendering:auto;enable-background:accumulate;stop-color:#000000"
             d="m -7.8909523,24.309273 -0.2533006,0.0077 -0.00348,10.179153 0.1328125,0.132812 H 26.379616 l 0.132812,-0.132812 0.0023,-10.18137 v 0 z m 0,0 34.1403663,0.0023 -6.58e-4,10.053661 H -7.8821034 Z"
             id="path2161"
             sodipodi:nodetypes="cccccccccccccc" />
        </g>
        <path
           style="color:#000000;font-style:normal;font-variant:normal;font-weight:normal;font-stretch:normal;font-size:medium;line-height:normal;font-family:sans-serif;font-variant-ligatures:normal;font-variant-position:normal;font-variant-caps:normal;font-variant-numeric:normal;font-variant-alternates:normal;font-variant-east-asian:normal;font-feature-settings:normal;font-variation-settings:normal;text-indent:0;text-align:start;text-decoration:none;text-decoration-line:none;text-decoration-style:solid;text-decoration-color:#000000;letter-spacing:normal;word-spacing:normal;text-transform:none;writing-mode:lr-tb;direction:ltr;text-orientation:mixed;dominant-baseline:auto;baseline-shift:baseline;text-anchor:start;white-space:normal;shape-padding:0;shape-margin:0;inline-size:0;clip-rule:nonzero;display:inline;overflow:visible;visibility:visible;isolation:auto;mix-blend-mode:normal;color-interpolation:sRGB;color-interpolation-filters:linearRGB;solid-color:#000000;solid-opacity:1;vector-effect:none;fill:url(#linearGradient2590);fill-opacity:1;fill-rule:nonzero;stroke:none;stroke-width:1.00001;stroke-linecap:round;stroke-linejoin:bevel;stroke-miterlimit:4;stroke-dasharray:none;stroke-dashoffset:0;stroke-opacity:1;color-rendering:auto;image-rendering:auto;shape-rendering:auto;text-rendering:auto;enable-background:accumulate;stop-color:#000000"
           d="m 12.434949,42.847036 34.259812,0.0023 -6.6e-4,10.137696 H 12.443829 Z"
           id="path2159"
           sodipodi:nodetypes="ccccc" />
      </g>
      <path
         d="m 41.318926,29.474582 c -0.810583,-0.87663 -2.364199,-1.281228 -4.593299,-1.281228 -1.215872,0 -2.499295,0.134866 -3.715166,0.337166 -0.810581,-0.741765 -1.486067,-1.618395 -2.161552,-2.495025 -0.472839,-0.674331 -0.94568,-1.348663 -1.350971,-2.090426 0.675485,-1.888128 1.080777,-3.91112 1.215873,-5.934114 0,-1.820693 -0.743033,-3.776252 -2.769489,-3.776252 -0.675484,0 -1.350969,0.404598 -1.688711,1.011496 -0.878131,1.483528 -0.540387,4.518018 0.878131,7.687372 -0.472839,1.416096 -1.013228,2.832191 -1.621165,4.383152 -0.540387,1.348663 -1.148324,2.629892 -1.891358,3.843687 -2.094003,0.809198 -6.484655,2.832191 -6.889946,5.057481 -0.135097,0.674332 0.06755,1.348663 0.607937,1.753262 0.472839,0.404598 1.148324,0.674332 1.82381,0.606898 2.634391,0 5.268782,-3.641387 7.092591,-6.810744 1.013227,-0.337165 2.026455,-0.67433 3.107232,-0.944063 1.148324,-0.269731 2.229099,-0.539464 3.242327,-0.741763 2.837036,2.42759 5.33633,2.83219 6.552204,2.83219 1.688711,0 2.364197,-0.741765 2.566843,-1.348663 0.270193,-0.741764 0.135097,-1.550961 -0.405291,-2.090426 z m -1.82381,1.28123 c -0.06754,0.472031 -0.607935,0.809196 -1.283421,0.809196 -0.202646,0 -0.405291,0 -0.607937,-0.06744 -1.35097,-0.337165 -2.634391,-1.011496 -3.715167,-1.888127 0.878131,-0.134866 1.82381,-0.202298 2.701939,-0.202298 0.607938,0 1.215874,0.06744 1.82381,0.134865 0.607936,0.134867 1.283422,0.404598 1.080776,1.213796 z M 27.403935,15.853096 c 0.135097,-0.202299 0.337744,-0.337165 0.607938,-0.404598 0.675485,0 0.810581,0.741764 0.810581,1.416096 -0.06754,1.55096 -0.337742,3.034488 -0.810581,4.518016 -1.148326,-2.899623 -1.013229,-4.855182 -0.607938,-5.529514 z m 3.782717,12.947155 c -0.743036,0.134867 -1.486067,0.337166 -2.229101,0.539465 -0.540388,0.134866 -1.080777,0.337165 -1.688713,0.472033 0.270194,-0.606899 0.54039,-1.213797 0.810583,-1.753261 0.337742,-0.741765 0.607937,-1.483529 0.87813,-2.225292 0.270193,0.404598 0.472839,0.741763 0.743034,1.078929 0.472838,0.674332 1.013226,1.281229 1.486067,1.888126 z m -8.173369,3.91112 c -1.688711,2.697324 -3.377424,4.450584 -4.323104,4.450584 -0.135096,0 -0.337742,-0.06743 -0.405289,-0.134865 -0.202647,-0.134867 -0.270195,-0.404598 -0.202647,-0.606897 0.135098,-1.011498 2.094003,-2.427592 4.93104,-3.708822 z"
         fill="#ffffff"
         id="path4"
         style="fill:#fd352b;fill-opacity:1;stroke-width:0.264584" />
      <g
         aria-label="P D F"
         transform="scale(1.0313107,0.96963987)"
         id="text2959"
         style="font-style:normal;font-weight:normal;font-size:28.3089px;line-height:1.25;font-family:sans-serif;fill:#000000;fill-opacity:1;stroke:none;stroke-width:0.264584">
        <path
           d="m 21.006084,51.889404 h 1.224366 v -1.443761 h 0.403404 c 1.330525,0 2.208105,-0.728958 2.208105,-1.83301 0,-1.026203 -0.750189,-1.634847 -2.002864,-1.634847 h -1.833011 z m 1.733929,-3.835875 c 0.495408,0 0.82804,0.268936 0.82804,0.679417 0,0.396327 -0.276014,0.636954 -0.714804,0.636954 H 22.23045 v -1.316371 z"
           style="font-style:normal;font-variant:normal;font-weight:800;font-stretch:normal;font-size:7.07726px;font-family:Cantarell;-inkscape-font-specification:'Cantarell Ultra-Bold';fill:#ffffff;stroke-width:0.264584"
           id="path2670" />
        <path
           d="m 26.568806,51.889404 h 1.748083 c 1.684388,0 2.795518,-1.012048 2.795518,-2.554891 0,-1.479147 -1.004971,-2.356727 -2.703514,-2.356727 h -1.840087 z m 1.203134,-1.054511 v -2.802595 h 0.566181 c 0.941275,0 1.500379,0.537871 1.500379,1.443761 0,0.87758 -0.488331,1.358834 -1.380066,1.358834 z"
           style="font-style:normal;font-variant:normal;font-weight:800;font-stretch:normal;font-size:7.07726px;font-family:Cantarell;-inkscape-font-specification:'Cantarell Ultra-Bold';fill:#ffffff;stroke-width:0.264584"
           id="path2672" />
        <path
           d="m 32.89587,51.889404 h 1.245598 v -1.818856 h 2.002865 v -1.075743 h -2.002865 v -0.941276 h 2.257646 V 46.977786 H 32.89587 Z"
           style="font-style:normal;font-variant:normal;font-weight:800;font-stretch:normal;font-size:7.07726px;font-family:Cantarell;-inkscape-font-specification:'Cantarell Ultra-Bold';fill:#ffffff;stroke-width:0.264584"
           id="path2674" />
      </g>
    </g>
  </g>
</svg>
