<?xml version="1.0" encoding="UTF-8" standalone="no"?>
<svg
   xmlns:dc="http://purl.org/dc/elements/1.1/"
   xmlns:cc="http://creativecommons.org/ns#"
   xmlns:rdf="http://www.w3.org/1999/02/22-rdf-syntax-ns#"
   xmlns:svg="http://www.w3.org/2000/svg"
   xmlns="http://www.w3.org/2000/svg"
   width="24"
   height="24"
   viewBox="0 0 6.35 6.35"
   version="1.1"
   id="svg2242">
  <defs
     id="defs2236">
    <marker
       style="overflow:visible"
       id="Arrow1Lstart"
       refX="0"
       refY="0"
       orient="auto">
      <path
         transform="matrix(0.8,0,0,0.8,10,0)"
         style="fill-rule:evenodd;stroke:#000000;stroke-width:1pt"
         d="M 0,0 5,-5 -12.5,0 5,5 Z"
         id="path1628" />
    </marker>
  </defs>
  <metadata
     id="metadata2239">
    <rdf:RDF>
      <cc:Work
         rdf:about="">
        <dc:format>image/svg+xml</dc:format>
        <dc:type
           rdf:resource="http://purl.org/dc/dcmitype/StillImage" />
        <dc:title></dc:title>
      </cc:Work>
    </rdf:RDF>
  </metadata>
  <rect
     style="fill:none;stroke:#00d900;stroke-width:9.53401;stroke-linejoin:miter;stroke-miterlimit:4;stroke-dasharray:none"
     id="rect3152"
     width="0"
     height="0"
     x="43.729687"
     y="-54.709492"
     ry="0" />
  <path
     id="rect1435"
     style="color:#000000;font-style:normal;font-variant:normal;font-weight:normal;font-stretch:normal;font-size:medium;line-height:normal;font-family:sans-serif;font-variant-ligatures:normal;font-variant-position:normal;font-variant-caps:normal;font-variant-numeric:normal;font-variant-alternates:normal;font-variant-east-asian:normal;font-feature-settings:normal;font-variation-settings:normal;text-indent:0;text-align:start;text-decoration:none;text-decoration-line:none;text-decoration-style:solid;text-decoration-color:#000000;letter-spacing:normal;word-spacing:normal;text-transform:none;writing-mode:lr-tb;direction:ltr;text-orientation:mixed;dominant-baseline:auto;baseline-shift:baseline;text-anchor:start;white-space:normal;shape-padding:0;shape-margin:0;inline-size:0;clip-rule:nonzero;display:inline;overflow:visible;visibility:visible;isolation:auto;mix-blend-mode:normal;color-interpolation:sRGB;color-interpolation-filters:linearRGB;solid-color:#000000;solid-opacity:1;vector-effect:none;fill:#ff0000;fill-opacity:1;fill-rule:nonzero;stroke:none;stroke-width:3.40498;stroke-linecap:butt;stroke-linejoin:round;stroke-miterlimit:4;stroke-dasharray:none;stroke-dashoffset:0;stroke-opacity:1;color-rendering:auto;image-rendering:auto;shape-rendering:auto;text-rendering:auto;enable-background:accumulate;stop-color:#000000"
     d="M 2.1035156 5.5 C 1.2203263 5.5 0.5 6.2261856 0.5 7.109375 L 0.5 16.939453 C 0.5 17.822643 1.2203263 18.548828 2.1035156 18.548828 L 20.517578 18.548828 C 21.400767 18.548828 22.126953 17.822643 22.126953 16.939453 L 22.126953 14.324219 L 23.5 14.324219 L 23.5 9.71875 L 22.126953 9.71875 L 22.126953 7.109375 C 22.126953 6.2261856 21.400767 5.5 20.517578 5.5 L 2.1035156 5.5 z M 2.1035156 6.3984375 L 20.517578 6.3984375 C 20.917253 6.3984375 21.228516 6.7097017 21.228516 7.109375 L 21.228516 9.71875 L 21.216797 9.71875 L 21.216797 14.324219 L 21.228516 14.324219 L 21.228516 16.939453 C 21.228516 17.339128 20.917251 17.642578 20.517578 17.642578 L 2.1035156 17.642578 C 1.703841 17.642578 1.3984372 17.339128 1.3984375 16.939453 L 1.3984375 7.109375 C 1.3984375 6.7097005 1.7038425 6.3984375 2.1035156 6.3984375 z "
     transform="scale(0.26458333)" />
  <path
     id="rect1486"
     style="fill:#ff0000;fill-opacity:1;stroke:none;stroke-width:0.0753769;stroke-linejoin:round;stroke-miterlimit:4;stroke-dasharray:none;stroke-opacity:1"
     d="M 0.60796197,1.9410086 H 1.0846881 c 0,0 0,0 0,0 v 2.4749545 c 0,0 0,1e-7 0,1e-7 H 0.60796197 c 0,0 0,-1e-7 0,-1e-7 V 1.9410086 c 0,0 0,0 0,0 z" />
</svg>
