/* XPM */
static char * menu_active_xpm[] = {
"20 24 3 1",
" 	c #4D98F5",
".	c #E9EAED",
"+	c #EDEDED",
"                    ",
"                    ",
"                    ",
"                    ",
"                    ",
"                    ",
"                    ",
"                    ",
"       ..+...       ",
"       ......       ",
"                    ",
"       ......       ",
"       ...+..       ",
"                    ",
"       ......       ",
"       ......       ",
"                    ",
"                    ",
"                    ",
"                    ",
"                    ",
"                    ",
"                    ",
"                    "};
