/* XPM */
static char * menu_prelight_xpm[] = {
"20 24 3 1",
" 	c #4D98F5",
".	c #EDEDED",
"+	c #E9EAED",
"                    ",
"                    ",
"                    ",
"                    ",
"                    ",
"                    ",
"                    ",
"       .+++++       ",
"       ++.+++       ",
"                    ",
"                    ",
"       ++++++       ",
"       +++.++       ",
"                    ",
"                    ",
"       +++++.       ",
"       ++++++       ",
"                    ",
"                    ",
"                    ",
"                    ",
"                    ",
"                    ",
"                    "};
