/* XPM */
static char * stick_toggled_prelight_xpm[] = {
"20 24 4 1",
" 	c #4D98F5",
".	c #EDEDED",
"+	c #5B9DF5",
"@	c #5B9CF5",
"                    ",
"                    ",
"                    ",
"                    ",
"                    ",
"                    ",
"                    ",
"                    ",
"      ........      ",
"      ........      ",
"      ..++++..      ",
"      ..+@@+..      ",
"      ..+@@+..      ",
"      ..++++..      ",
"      ........      ",
"      ........      ",
"                    ",
"                    ",
"                    ",
"                    ",
"                    ",
"                    ",
"                    ",
"                    "};
